<?xml version="1.0" encoding="UTF-8"?><svg xmlns="http://www.w3.org/2000/svg" xmlns:xlink="http://www.w3.org/1999/xlink" contentScriptType="text/ecmascript" width="375" zoomAndPan="magnify" contentStyleType="text/css" viewBox="0 0 375 374.999991" height="374.999991" preserveAspectRatio="xMidYMid meet" version="1.0"><defs><clipPath id="clip-0"><path d="M 0.226562 41.074219 L 305.746094 41.074219 L 305.746094 373.386719 L 0.226562 373.386719 Z M 0.226562 41.074219 " clip-rule="nonzero"/></clipPath><clipPath id="clip-1"><path d="M 81.335938 0.804688 L 375 0.804688 L 375 373.972656 L 81.335938 373.972656 Z M 81.335938 0.804688 " clip-rule="nonzero"/></clipPath></defs><g clip-path="url(#clip-0)"><path fill="rgb(92.549133%, 92.549133%, 92.158508%)" d="M 304.355469 254.359375 L 305.023438 118.730469 L 275.046875 118.839844 L 274.9375 209.824219 L 193.601562 113.640625 L 178.371094 121.242188 L 181.472656 349.566406 C 181.339844 349.566406 184.910156 345.878906 184.785156 345.878906 C 87.363281 345.878906 38.535156 277.675781 30.085938 187.453125 C 25.152344 134.789062 53.230469 101.46875 71.289062 68.3125 L 71.042969 41.480469 C 28.367188 75.667969 0.980469 128.160156 0.980469 186.964844 C 0.980469 289.746094 84.597656 373.367188 187.382812 373.367188 C 190.96875 373.367188 204.171875 373.164062 207.710938 372.960938 L 204.921875 176.351562 L 277.671875 254.558594 Z M 304.355469 254.359375 " fill-opacity="1" fill-rule="nonzero"/></g><g clip-path="url(#clip-1)"><path fill="rgb(97.648621%, 65.879822%, 15.689087%)" d="M 188.914062 -0.117188 C 149.277344 -0.117188 112.027344 14.015625 81.785156 35.191406 L 81.785156 255.929688 L 168.808594 255.929688 L 168.34375 229.652344 L 109.34375 230.246094 L 109.640625 50.4375 C 137.332031 32.398438 146.921875 25.601562 189.1875 24.117188 C 264.371094 21.484375 347.207031 95.355469 343.75 187.082031 C 340.390625 275.925781 301.777344 325.828125 216.421875 346.957031 L 216.753906 373.472656 C 309.980469 363.285156 374.820312 283.84375 374.820312 187.953125 C 374.820312 85.167969 291.699219 -0.117188 188.914062 -0.117188 Z M 188.914062 -0.117188 " fill-opacity="1" fill-rule="nonzero"/></g></svg>