<?xml version="1.0" encoding="UTF-8"?><svg xmlns="http://www.w3.org/2000/svg" xmlns:xlink="http://www.w3.org/1999/xlink" contentScriptType="text/ecmascript" width="375" zoomAndPan="magnify" contentStyleType="text/css" viewBox="0 0 375 374.999991" height="374.999991" preserveAspectRatio="xMidYMid meet" version="1.0"><defs><clipPath id="clip-0"><path d="M 0 41.121094 L 305.851562 41.121094 L 305.851562 373.929688 L 0 373.929688 Z M 0 41.121094 " clip-rule="nonzero"/></clipPath><clipPath id="clip-1"><path d="M 81.109375 0 L 375 0 L 375 374.515625 L 81.109375 374.515625 Z M 81.109375 0 " clip-rule="nonzero"/></clipPath></defs><g clip-path="url(#clip-0)"><path fill="rgb(18.03894%, 21.958923%, 24.708557%)" d="M 304.460938 254.726562 L 305.128906 118.890625 L 275.105469 119.003906 L 274.996094 210.121094 L 193.539062 113.796875 L 178.285156 121.410156 L 181.394531 350.074219 C 181.261719 350.074219 184.835938 346.382812 184.710938 346.382812 C 87.140625 346.382812 38.242188 278.078125 29.777344 187.71875 C 24.839844 134.976562 52.960938 101.605469 71.046875 68.402344 L 70.796875 41.53125 C 28.0625 75.765625 0.628906 128.335938 0.628906 187.226562 C 0.628906 290.167969 84.375 373.910156 187.3125 373.910156 C 190.902344 373.910156 204.128906 373.707031 207.671875 373.503906 L 204.878906 176.601562 L 277.734375 254.921875 Z M 304.460938 254.726562 " fill-opacity="1" fill-rule="nonzero"/></g><g clip-path="url(#clip-1)"><path fill="rgb(97.648621%, 65.879822%, 15.689087%)" d="M 188.847656 -0.128906 C 149.148438 -0.128906 111.84375 14.023438 81.558594 35.230469 L 81.558594 256.300781 L 168.710938 256.300781 L 168.246094 229.980469 L 109.15625 230.574219 L 109.457031 50.496094 C 137.1875 32.429688 146.789062 25.625 189.117188 24.140625 C 264.414062 21.5 347.375 95.484375 343.910156 187.347656 C 340.550781 276.324219 301.878906 326.300781 216.398438 347.460938 L 216.726562 374.015625 C 310.089844 363.8125 375.03125 284.253906 375.03125 188.21875 C 375.03125 85.28125 291.785156 -0.128906 188.847656 -0.128906 Z M 188.847656 -0.128906 " fill-opacity="1" fill-rule="nonzero"/></g></svg>