<?xml version="1.0" encoding="UTF-8"?><svg xmlns="http://www.w3.org/2000/svg" xmlns:xlink="http://www.w3.org/1999/xlink" contentScriptType="text/ecmascript" width="375" zoomAndPan="magnify" contentStyleType="text/css" viewBox="0 0 375 374.999991" height="374.999991" preserveAspectRatio="xMidYMid meet" version="1.0"><defs><clipPath id="clip-0"><path d="M 0 44 L 304 44 L 304 374.660156 L 0 374.660156 Z M 0 44 " clip-rule="nonzero"/></clipPath><clipPath id="clip-1"><path d="M 81 2 L 374 2 L 374 374.660156 L 81 374.660156 Z M 81 2 " clip-rule="nonzero"/></clipPath></defs><g clip-path="url(#clip-0)"><path fill="rgb(18.03894%, 21.958923%, 24.708557%)" d="M 302.617188 256.226562 L 303.28125 121.269531 L 273.453125 121.378906 L 273.34375 211.910156 L 192.414062 116.207031 L 177.257812 123.769531 L 180.347656 350.957031 C 180.214844 350.957031 183.765625 347.289062 183.640625 347.289062 C 86.703125 347.289062 38.121094 279.425781 29.710938 189.652344 C 24.804688 137.25 52.742188 104.09375 70.710938 71.105469 L 70.464844 44.40625 C 28.003906 78.421875 0.75 130.652344 0.75 189.164062 C 0.75 291.4375 83.953125 374.640625 186.226562 374.640625 C 189.792969 374.640625 202.933594 374.4375 206.453125 374.238281 L 203.679688 178.605469 L 276.066406 256.421875 Z M 302.617188 256.226562 " fill-opacity="1" fill-rule="nonzero"/></g><g clip-path="url(#clip-1)"><path fill="rgb(97.648621%, 65.879822%, 15.689087%)" d="M 188.042969 2.433594 C 148.601562 2.433594 111.535156 16.496094 81.445312 37.566406 L 81.445312 257.207031 L 168.035156 257.207031 L 167.574219 231.058594 L 108.867188 231.648438 L 109.164062 52.734375 C 136.714844 34.785156 146.257812 28.023438 188.3125 26.546875 C 263.121094 23.925781 345.546875 97.429688 342.105469 188.699219 C 338.765625 277.101562 300.34375 326.757812 215.414062 347.78125 L 215.742188 374.164062 C 308.503906 364.027344 373.023438 284.980469 373.023438 189.566406 C 373.023438 87.292969 290.316406 2.433594 188.042969 2.433594 Z M 188.042969 2.433594 " fill-opacity="1" fill-rule="nonzero"/></g></svg>