<svg xmlns="http://www.w3.org/2000/svg" xmlns:xlink="http://www.w3.org/1999/xlink" viewBox="0 0 133 72" fill="#fff" fill-rule="evenodd" stroke="#000" stroke-linecap="round" stroke-linejoin="round"><use xlink:href="#A" x=".5" y=".5"/><symbol id="A" overflow="visible"><path d="M55.703 55.405V26.213c0-7.447-4.17-12.5-14.596-12.5-5.957 0-11.022 1.5-15.5 3.276l1.5 5.362c3.276-1.2 7.447-2.383 11.915-2.383 5.66 0 8.34 2.383 8.34 7.15v3.872h-2.98c-14.298 0-20.85 5.362-20.85 14 0 7.15 4.468 11.32 12.5 11.32 5.064 0 8.937-2.383 12.5-5.362l.596 4.468h6.553zm-8.34-9.532c-2.98 2.68-6.255 4.17-9.234 4.17-3.872 0-6.255-2.383-6.255-6.553s2.383-7.15 11.915-7.15h3.575v9.532zm36.34 9.532H73.277l-12.5-40.8h8.936l7.745 25.02 1.787 7.447c3.873-10.723 6.85-21.745 8.043-32.468h8.936c-2.383 13.404-6.553 28-12.5 40.8zm48.255 0V26.213c0-7.447-4.17-12.5-14.597-12.5-5.957 0-11.02 1.5-15.5 3.276l1.192 5.362c3.574-1.2 7.744-2.383 12.213-2.383 5.66 0 8.34 2.383 8.34 7.15v3.872h-2.98c-14.298 0-20.85 5.362-20.85 14 0 7.15 4.17 11.32 12.213 11.32 5.362 0 9.234-2.383 12.8-5.362l.596 4.468h6.553zm-8.34-9.532c-2.98 2.68-6.256 4.17-9.234 4.17-3.872 0-6.255-2.383-6.255-6.553s2.383-7.15 11.914-7.15h3.575v9.532zM14.3 62.256C11.916 65.83 8.34 68.5 3.873 70L0 65.234c2.98-1.787 5.958-4.468 7.15-6.85 1.192-2.085 1.5-5.064 1.5-11.915V0h8.937v45.872c0 9.234-.894 12.808-3.277 16.383z" stroke="none" fill="#000" fill-rule="nonzero"/></symbol></svg>